# xmcd
#
# Track frame offsets: 
#        150
#        13267
#        29817
#        43949
#        58368
#        73107
#        88036
#        102079
#        117449
#        130790
#        142506
#        157362
#        172721
#        187168
#        202152
#        224088
#        237043
#        251813
#        266985
#        282315
#        294665
#
# Disc length: 4151 seconds
#
# Revision: 0
# Processed by: cddbd v1.5.2PL0 Copyright (c) Steve Scherf et al.
# Submitted via: ExactAudioCopy v1.1
#
DISCID=5b103515
DTITLE=Various Artist - MNM Party 2017 Volume 1 - CD 1 - Newest Party Hits
DYEAR=2017
DGENRE=Pop
TTITLE0=Van Echelpoel - Ziet Em Duun
TTITLE1=Starley - Call On Me (Ryan Riback Remix)
TTITLE2=Dimitri Vegas and Like Mike Vs. Diplo Feat. Deb's Daughter - Hey
TTITLE2=Baby
TTITLE3=Alok and Bruno Martini Feat. Zeeba - Hear Me Now
TTITLE4=Steve Aoki and Louis Tomlinson - Just Hold On
TTITLE5=DJ Fresh Vs. Diplo Feat. R. City, Selah Sue and Craig David - Ba
TTITLE5=ng Bang
TTITLE6=Lost Frequencies - What Is Love 2016
TTITLE7=Netsky Feat. Paije - Who Knows
TTITLE8=Henri PFR Feat. Raphaella - Until The End
TTITLE9=Curtis Alto - Afraid
TTITLE10=Jonas Blue Feat. Raye - By Your Side
TTITLE11=Kungs Feat. Ephemerals - I Feel So Bad
TTITLE12=The Chainsmokers Feat. Phoebe Ryan - All We Know
TTITLE13=Dastic Feat. Cade - Let Me Love You
TTITLE14=Kölsch - Grey
TTITLE15=Sophie Francis - Walls
TTITLE16=Cheat Codes - Queen Elizabeth
TTITLE17=Fifth Harmony - That's My Girl
TTITLE18=Galantis and Hook N Sling - Love On Me
TTITLE19=Nevada Feat. Mark Morrison and Fetty Wap - The Mack
TTITLE20=Major Lazer and Showtek - Believer
EXTD=
EXTT0=
EXTT1=
EXTT2=
EXTT3=
EXTT4=
EXTT5=
EXTT6=
EXTT7=
EXTT8=
EXTT9=
EXTT10=
EXTT11=
EXTT12=
EXTT13=
EXTT14=
EXTT15=
EXTT16=
EXTT17=
EXTT18=
EXTT19=
EXTT20=
PLAYORDER=
